<?xml version="1.0" encoding="utf-8"?>
<!-- Generator: Adobe Illustrator 18.0.0, SVG Export Plug-In . SVG Version: 6.00 Build 0)  -->
<!DOCTYPE svg PUBLIC "-//W3C//DTD SVG 1.1//EN" "http://www.w3.org/Graphics/SVG/1.1/DTD/svg11.dtd">
<svg version="1.1" id="Layer_1" xmlns="http://www.w3.org/2000/svg" xmlns:xlink="http://www.w3.org/1999/xlink" x="0px" y="0px"
	 viewBox="0 0 83.5 76.2" enable-background="new 0 0 83.5 76.2" xml:space="preserve">
<path d="M72.6,0H10.9C8.4,0,6.2,2,6,4.6L0,70.8c-0.3,2.9,2,5.4,5,5.4h73.5c2.9,0,5.2-2.5,5-5.4L77.6,4.6C77.3,2,75.2,0,72.6,0z
	 M63.4,69.9c-0.5,0-1-0.4-1-0.9l-2.9-36.7h-0.4L46.3,68.8c-0.1,0.4-0.5,0.7-0.9,0.7h-7.2c-0.4,0-0.8-0.3-0.9-0.7L24.4,32.2H24
	L21.1,69c0,0.5-0.5,0.9-1,0.9H7.7c-0.6,0-1-0.5-1-1.1l5.5-61.5c0-0.5,0.5-0.9,1-0.9H27c0.4,0,0.8,0.3,0.9,0.6l12.9,33.6
	c0.3,0.9,1.5,0.9,1.9,0L55.6,7c0.1-0.4,0.5-0.6,0.9-0.6h13.8c0.5,0,0.9,0.4,1,0.9l5.5,61.5c0.1,0.6-0.4,1.1-1,1.1H63.4z"/>
</svg>
